# xmcd
#
# Track frame offsets: 
#        150
#        14284
#        30521
#        47999
#        65591
#        82524
#        98961
#        113186
#        128458
#        144865
#        166444
#        180961
#        194869
#
# Disc length: 2892 seconds
#
# Revision: 0
# Processed by: cddbd v1.5.2PL0 Copyright (c) Steve Scherf et al.
# Submitted via: ExactAudioCopy v1.0b3
#
DISCID=a20b4a0d
DTITLE=William Clark Green - Misunderstood
DYEAR=2011
DGENRE=Texas Country
TTITLE0=Down On The Bayou
TTITLE1=Sweet Amy
TTITLE2=Caroline
TTITLE3=Change
TTITLE4=Drunk On Desire
TTITLE5=Misunderstood
TTITLE6=Tonight
TTITLE7=Dangerous Man Part 2
TTITLE8=Catch Me When I Fall (Featuring Josh Abbott)
TTITLE9=Marie
TTITLE10=Push And Shove
TTITLE11=Muddy Shoes
TTITLE12=Can't Change
EXTD=
EXTT0=
EXTT1=
EXTT2=
EXTT3=
EXTT4=
EXTT5=
EXTT6=
EXTT7=
EXTT8=
EXTT9=
EXTT10=
EXTT11=
EXTT12=
PLAYORDER=
